Coordinates
version=1
nRows=60
nColumns=12
inDegrees=yes

Units are S.I. units (second, meters, Newtons, ...)
Angles are in degrees

endheader
time	SC_y	SC_z	SC_x	AC_y	AC_z	AC_x	GH_y	GH_z	GH_yy	EL_x	PS_y
       0.0              -34.66         0.9183          26.82          37.43          1.187         -6.622          43.98          20.92         -1.586          79.02          134.1
   0.02701              -34.66         0.9184          26.82          37.43          1.187          -6.62           44.0          20.93          -1.58          79.01          134.1
   0.05402              -34.66         0.9184          26.83          37.44          1.188         -6.617          44.02          20.93         -1.573           79.0          134.1
   0.08102              -34.65         0.9184          26.84          37.44          1.188         -6.615          44.03          20.93         -1.566          78.99          134.1
     0.108              -34.65         0.9184          26.85          37.44          1.189         -6.612          44.05          20.93         -1.558          78.97          134.1
     0.135              -34.65         0.9185          26.86          37.45           1.19         -6.609          44.07          20.93          -1.55          78.96          134.0
     0.162              -34.64         0.9185          26.87          37.45           1.19         -6.606          44.09          20.93         -1.541          78.95          134.0
    0.1891              -34.64         0.9185          26.88          37.45          1.191         -6.603          44.12          20.93         -1.532          78.93          134.0
    0.2161              -34.64         0.9186           26.9          37.46          1.192           -6.6          44.14          20.93         -1.522          78.92          134.0
    0.2431              -34.63         0.9186          26.91          37.46          1.193         -6.596          44.17          20.93         -1.511           78.9          134.0
    0.2701              -34.63         0.9186          26.92          37.47          1.194         -6.592          44.19          20.93           -1.5          78.88          134.0
    0.2971              -34.62         0.9187          26.94          37.47          1.195         -6.587          44.22          20.93         -1.487          78.86          134.0
    0.3241              -34.62         0.9187          26.95          37.48          1.196         -6.583          44.26          20.94         -1.474          78.84          134.0
    0.3511              -34.61         0.9188          26.97          37.48          1.197         -6.578          44.29          20.94         -1.459          78.82          133.9
    0.3781               -34.6         0.9188          26.99          37.49          1.198         -6.572          44.33          20.94         -1.444          78.79          133.9
    0.4051               -34.6         0.9189          27.01           37.5          1.199         -6.566          44.37          20.94         -1.427          78.77          133.9
    0.4321              -34.59         0.9189          27.03           37.5          1.201          -6.56          44.41          20.94         -1.408          78.74          133.9
    0.4591              -34.58          0.919          27.06          37.51          1.202         -6.553          44.46          20.94         -1.388          78.71          133.9
    0.4861              -34.57         0.9191          27.09          37.52          1.204         -6.545          44.52          20.95         -1.366          78.67          133.8
    0.5131              -34.56         0.9191          27.12          37.53          1.206         -6.537          44.57          20.95         -1.342          78.64          133.8
    0.5402              -34.55         0.9192          27.15          37.54          1.208         -6.528          44.64          20.95         -1.316          78.59          133.8
    0.5672              -34.54         0.9193          27.18          37.55           1.21         -6.518          44.71          20.95         -1.286          78.55          133.7
    0.5942              -34.53         0.9194          27.22          37.56          1.213         -6.507          44.78          20.96         -1.254           78.5          133.7
    0.6212              -34.51         0.9195          27.27          37.58          1.215         -6.494          44.87          20.96         -1.219          78.44          133.7
    0.6482              -34.49         0.9197          27.32          37.59          1.218         -6.481          44.97          20.96         -1.179          78.38          133.6
    0.6752              -34.48         0.9198          27.37          37.61          1.222         -6.465          45.07          20.97         -1.135          78.31          133.6
    0.7022              -34.46           0.92          27.43          37.63          1.226         -6.448          45.19          20.97         -1.086          78.23          133.5
    0.7292              -34.43         0.9201           27.5          37.65           1.23         -6.429          45.33          20.98          -1.03          78.15          133.4
    0.7562              -34.41         0.9203          27.58          37.68          1.235         -6.407          45.48          20.98        -0.9671          78.05          133.4
    0.7832              -34.38         0.9206          27.66          37.71           1.24         -6.382          45.65          20.99        -0.8957          77.94          133.3
    0.8102              -34.35         0.9208          27.76          37.74          1.247         -6.354          45.85           21.0        -0.8143          77.81          133.2
    0.8372              -34.31         0.9211          27.88          37.78          1.254         -6.321          46.07          21.01        -0.7208          77.66          133.1
    0.8642              -34.26         0.9215          28.01          37.82          1.262         -6.284          46.33          21.02        -0.6128           77.5          133.0
    0.8912              -34.21         0.9219          28.16          37.87          1.272          -6.24          46.63          21.03        -0.4874           77.3          132.8
    0.9183              -34.15         0.9223          28.34          37.93          1.284         -6.189          46.99          21.04        -0.3407          77.07          132.7
    0.9453              -34.08         0.9229          28.55           38.0          1.297         -6.129           47.4          21.06        -0.1677           76.8          132.5
    0.9723               -34.0         0.9236          28.81          38.08          1.313         -6.058           47.9          21.08        0.03786          76.48          132.2
    0.9993              -33.89         0.9243          29.11          38.18          1.332         -5.972          48.49           21.1         0.2843          76.09          131.9
     1.026              -33.77         0.9253          29.47           38.3          1.355         -5.869          49.21          21.13         0.5824          75.63          131.6
     1.053              -33.62         0.9265          29.92          38.45          1.383         -5.742          50.09          21.17         0.9466          75.06          131.2
      1.08              -33.44         0.9279          30.47          38.63          1.418         -5.586          51.18          21.21          1.396          74.35          130.7
     1.107              -33.21         0.9297          31.16          38.85          1.462         -5.392          52.53          21.26          1.956          73.48          130.0
     1.134              -32.92          0.932          32.02          39.13          1.517         -5.146          54.23          21.33          2.663          72.37          129.2
     1.161              -32.55         0.9349          33.12          39.49          1.586         -4.835          56.39          21.42           3.56          70.97          128.2
     1.188              -32.08         0.9385          34.53          39.95          1.675         -4.436          59.16          21.53          4.709          69.17          126.9
     1.215              -31.47         0.9433          36.34          40.54           1.79         -3.924          62.72          21.67          6.183          66.87          125.2
     1.242               -30.7         0.9493          38.65           41.3          1.936          -3.27          67.26          21.85          8.066          63.93          123.1
     1.269              -29.73         0.9569          41.55          42.24           2.12         -2.447          72.97          22.08          10.43          60.22          120.4
     1.296              -28.54         0.9662          45.08           43.4          2.343         -1.445          79.93          22.35          13.32          55.71          117.1
     1.323              -27.17         0.9769          49.18          44.74          2.603        -0.2836          87.99          22.67          16.66          50.48          113.2
      1.35              -25.68         0.9885          53.62          46.19          2.884         0.9742          96.73          23.02          20.29          44.82          109.1
     1.377               -24.2            1.0          58.06          47.64          3.165          2.232          105.5          23.36          23.91          39.16          105.0
     1.404              -22.82          1.011          62.16          48.98          3.424          3.394          113.5          23.68          27.25          33.93          101.2
     1.431              -21.64           1.02          65.69          50.13          3.648          4.396          120.5          23.96          30.14          29.42          97.86
     1.458              -20.67          1.028           68.6          51.08          3.832          5.218          126.2          24.19          32.51          25.71          95.15
     1.485               -19.9          1.034           70.9          51.84          3.978          5.872          130.7          24.37          34.39          22.77           93.0
     1.512              -19.29          1.038          72.71          52.43          4.093          6.384          134.3          24.51          35.86          20.47          91.32
     1.539              -18.82          1.042          74.12          52.89          4.182          6.783          137.1          24.62          37.01          18.67          90.01
     1.566              -18.45          1.045          75.22          53.25          4.251          7.095          139.2           24.7          37.91          17.27          88.98
     1.593              -18.16          1.047          76.08          53.53          4.306           7.34          140.9          24.77          38.62          16.16          88.18
